<svg xmlns="http://www.w3.org/2000/svg" xmlns:xlink="http://www.w3.org/1999/xlink" width="343" zoomAndPan="magnify" viewBox="0 0 257.25 60" height="80" preserveAspectRatio="xMidYMid meet" version="1.0"><defs><g/></defs><g fill="#0891b2" fill-opacity="1"><g transform="translate(0.0116847, 45.953576)"><g><path d="M 5.078125 0 L 5.078125 -34.890625 L 9.46875 -34.890625 L 9.46875 -4.1875 L 26.421875 -4.1875 L 26.421875 0 Z M 5.078125 0 "/></g></g></g><g fill="#0891b2" fill-opacity="1"><g transform="translate(25.832279, 45.953576)"><g><path d="M 16.296875 0.640625 C 13.609375 0.640625 11.234375 0.0625 9.171875 -1.09375 C 7.109375 -2.257812 5.492188 -3.867188 4.328125 -5.921875 C 3.171875 -7.984375 2.59375 -10.328125 2.59375 -12.953125 C 2.59375 -15.617188 3.171875 -17.960938 4.328125 -19.984375 C 5.492188 -22.015625 7.109375 -23.609375 9.171875 -24.765625 C 11.234375 -25.929688 13.609375 -26.515625 16.296875 -26.515625 C 18.992188 -26.515625 21.367188 -25.929688 23.421875 -24.765625 C 25.484375 -23.609375 27.09375 -22.015625 28.25 -19.984375 C 29.414062 -17.960938 30 -15.617188 30 -12.953125 C 30 -10.328125 29.414062 -7.984375 28.25 -5.921875 C 27.09375 -3.867188 25.484375 -2.257812 23.421875 -1.09375 C 21.367188 0.0625 18.992188 0.640625 16.296875 0.640625 Z M 6.78125 -12.953125 C 6.78125 -11.066406 7.1875 -9.398438 8 -7.953125 C 8.8125 -6.503906 9.929688 -5.378906 11.359375 -4.578125 C 12.785156 -3.785156 14.429688 -3.390625 16.296875 -3.390625 C 18.160156 -3.390625 19.804688 -3.785156 21.234375 -4.578125 C 22.660156 -5.378906 23.78125 -6.503906 24.59375 -7.953125 C 25.40625 -9.398438 25.8125 -11.066406 25.8125 -12.953125 C 25.8125 -14.847656 25.40625 -16.507812 24.59375 -17.9375 C 23.78125 -19.375 22.660156 -20.5 21.234375 -21.3125 C 19.804688 -22.125 18.160156 -22.53125 16.296875 -22.53125 C 14.429688 -22.53125 12.785156 -22.125 11.359375 -21.3125 C 9.929688 -20.5 8.8125 -19.375 8 -17.9375 C 7.1875 -16.507812 6.78125 -14.847656 6.78125 -12.953125 Z M 6.78125 -12.953125 "/></g></g></g><g fill="#0891b2" fill-opacity="1"><g transform="translate(58.432169, 45.953576)"><g><path d="M 16.203125 10.609375 C 12.910156 10.609375 10.164062 9.800781 7.96875 8.1875 C 5.78125 6.582031 4.453125 4.398438 3.984375 1.640625 L 8.21875 1.640625 C 8.625 3.203125 9.523438 4.441406 10.921875 5.359375 C 12.316406 6.273438 14.078125 6.734375 16.203125 6.734375 C 18.921875 6.734375 21.023438 6 22.515625 4.53125 C 24.015625 3.070312 24.765625 1.015625 24.765625 -1.640625 L 24.765625 -4.09375 C 23.640625 -2.894531 22.28125 -1.953125 20.6875 -1.265625 C 19.09375 -0.585938 17.363281 -0.25 15.5 -0.25 C 13.039062 -0.25 10.835938 -0.820312 8.890625 -1.96875 C 6.953125 -3.113281 5.414062 -4.675781 4.28125 -6.65625 C 3.15625 -8.632812 2.59375 -10.882812 2.59375 -13.40625 C 2.59375 -15.9375 3.15625 -18.179688 4.28125 -20.140625 C 5.414062 -22.097656 6.953125 -23.648438 8.890625 -24.796875 C 10.835938 -25.941406 13.039062 -26.515625 15.5 -26.515625 C 17.457031 -26.515625 19.257812 -26.148438 20.90625 -25.421875 C 22.550781 -24.691406 23.941406 -23.675781 25.078125 -22.375 L 25.515625 -25.875 L 28.953125 -25.875 L 28.953125 -1.5 C 28.953125 0.925781 28.425781 3.050781 27.375 4.875 C 26.332031 6.707031 24.859375 8.117188 22.953125 9.109375 C 21.046875 10.109375 18.796875 10.609375 16.203125 10.609375 Z M 6.78125 -13.40625 C 6.78125 -11.644531 7.171875 -10.070312 7.953125 -8.6875 C 8.734375 -7.3125 9.820312 -6.242188 11.21875 -5.484375 C 12.613281 -4.722656 14.191406 -4.34375 15.953125 -4.34375 C 17.742188 -4.34375 19.328125 -4.722656 20.703125 -5.484375 C 22.085938 -6.242188 23.171875 -7.3125 23.953125 -8.6875 C 24.734375 -10.070312 25.125 -11.644531 25.125 -13.40625 C 25.125 -15.164062 24.734375 -16.726562 23.953125 -18.09375 C 23.171875 -19.457031 22.085938 -20.53125 20.703125 -21.3125 C 19.328125 -22.09375 17.742188 -22.484375 15.953125 -22.484375 C 14.191406 -22.484375 12.613281 -22.09375 11.21875 -21.3125 C 9.820312 -20.53125 8.734375 -19.457031 7.953125 -18.09375 C 7.171875 -16.726562 6.78125 -15.164062 6.78125 -13.40625 Z M 6.78125 -13.40625 "/></g></g></g><g fill="#0891b2" fill-opacity="1"><g transform="translate(92.028999, 45.953576)"><g><path d="M 4.640625 0 L 4.640625 -25.875 L 8.828125 -25.875 L 8.828125 0 Z M 3.34375 -33.390625 C 3.34375 -34.359375 3.648438 -35.148438 4.265625 -35.765625 C 4.878906 -36.378906 5.703125 -36.6875 6.734375 -36.6875 C 7.765625 -36.6875 8.578125 -36.378906 9.171875 -35.765625 C 9.765625 -35.148438 10.0625 -34.359375 10.0625 -33.390625 C 10.0625 -32.460938 9.765625 -31.691406 9.171875 -31.078125 C 8.578125 -30.460938 7.765625 -30.15625 6.734375 -30.15625 C 5.703125 -30.15625 4.878906 -30.460938 4.265625 -31.078125 C 3.648438 -31.691406 3.34375 -32.460938 3.34375 -33.390625 Z M 3.34375 -33.390625 "/></g></g></g><g fill="#0891b2" fill-opacity="1"><g transform="translate(105.487667, 45.953576)"><g><path d="M 15.90625 0.640625 C 13.3125 0.640625 11.015625 0.0625 9.015625 -1.09375 C 7.023438 -2.257812 5.457031 -3.867188 4.3125 -5.921875 C 3.164062 -7.984375 2.59375 -10.328125 2.59375 -12.953125 C 2.59375 -15.578125 3.164062 -17.910156 4.3125 -19.953125 C 5.457031 -22.003906 7.023438 -23.609375 9.015625 -24.765625 C 11.015625 -25.929688 13.3125 -26.515625 15.90625 -26.515625 C 18.0625 -26.515625 20.035156 -26.109375 21.828125 -25.296875 C 23.617188 -24.484375 25.128906 -23.351562 26.359375 -21.90625 C 27.597656 -20.457031 28.429688 -18.753906 28.859375 -16.796875 L 24.625 -16.796875 C 23.851562 -18.585938 22.695312 -19.988281 21.15625 -21 C 19.613281 -22.019531 17.863281 -22.53125 15.90625 -22.53125 C 14.144531 -22.53125 12.570312 -22.125 11.1875 -21.3125 C 9.8125 -20.5 8.734375 -19.367188 7.953125 -17.921875 C 7.171875 -16.472656 6.78125 -14.816406 6.78125 -12.953125 C 6.78125 -11.097656 7.171875 -9.445312 7.953125 -8 C 8.734375 -6.550781 9.8125 -5.421875 11.1875 -4.609375 C 12.570312 -3.796875 14.144531 -3.390625 15.90625 -3.390625 C 18 -3.390625 19.832031 -3.945312 21.40625 -5.0625 C 22.988281 -6.175781 24.09375 -7.660156 24.71875 -9.515625 L 29.15625 -9.515625 C 28.289062 -6.390625 26.675781 -3.914062 24.3125 -2.09375 C 21.957031 -0.269531 19.15625 0.640625 15.90625 0.640625 Z M 15.90625 0.640625 "/></g></g></g><g fill="#d97706" fill-opacity="1"><g transform="translate(137.096394, 45.953576)"><g><path d="M 16.703125 0.640625 C 13.910156 0.640625 11.488281 0.171875 9.4375 -0.765625 C 7.394531 -1.710938 5.816406 -3.039062 4.703125 -4.75 C 3.597656 -6.46875 3.023438 -8.457031 2.984375 -10.71875 L 7.375 -10.71875 C 7.445312 -8.488281 8.335938 -6.734375 10.046875 -5.453125 C 11.753906 -4.171875 13.972656 -3.53125 16.703125 -3.53125 C 19.160156 -3.53125 21.109375 -4.015625 22.546875 -4.984375 C 23.992188 -5.953125 24.71875 -7.296875 24.71875 -9.015625 C 24.71875 -10.648438 24.019531 -11.957031 22.625 -12.9375 C 21.226562 -13.914062 18.953125 -14.769531 15.796875 -15.5 C 11.515625 -16.53125 8.375 -17.847656 6.375 -19.453125 C 4.382812 -21.066406 3.390625 -23.222656 3.390625 -25.921875 C 3.390625 -28.878906 4.507812 -31.21875 6.75 -32.9375 C 9 -34.664062 12.03125 -35.53125 15.84375 -35.53125 C 19.769531 -35.53125 22.867188 -34.550781 25.140625 -32.59375 C 27.421875 -30.632812 28.578125 -27.960938 28.609375 -24.578125 L 24.28125 -24.578125 C 24.238281 -26.671875 23.460938 -28.320312 21.953125 -29.53125 C 20.441406 -30.75 18.40625 -31.359375 15.84375 -31.359375 C 13.351562 -31.359375 11.398438 -30.863281 9.984375 -29.875 C 8.578125 -28.894531 7.875 -27.578125 7.875 -25.921875 C 7.875 -24.492188 8.53125 -23.285156 9.84375 -22.296875 C 11.15625 -21.316406 13.503906 -20.414062 16.890625 -19.59375 C 21.347656 -18.488281 24.523438 -17.113281 26.421875 -15.46875 C 28.316406 -13.832031 29.265625 -11.734375 29.265625 -9.171875 C 29.265625 -6.148438 28.125 -3.757812 25.84375 -2 C 23.570312 -0.238281 20.523438 0.640625 16.703125 0.640625 Z M 16.703125 0.640625 "/></g></g></g><g fill="#d97706" fill-opacity="1"><g transform="translate(168.749162, 45.953576)"><g><path d="M 15.796875 0 C 12.941406 0 10.722656 -0.8125 9.140625 -2.4375 C 7.566406 -4.070312 6.78125 -6.367188 6.78125 -9.328125 L 6.78125 -22.03125 L 1.34375 -22.03125 L 1.34375 -25.875 L 3.9375 -25.875 C 5.132812 -25.875 5.960938 -26.070312 6.421875 -26.46875 C 6.890625 -26.863281 7.191406 -27.644531 7.328125 -28.8125 L 7.71875 -32.296875 L 10.96875 -32.296875 L 10.96875 -25.875 L 19.34375 -25.875 L 19.34375 -22.03125 L 10.96875 -22.03125 L 10.96875 -9.515625 C 10.96875 -5.859375 12.644531 -4.03125 16 -4.03125 L 19.6875 -4.03125 L 19.6875 0 Z M 15.796875 0 "/></g></g></g><g fill="#d97706" fill-opacity="1"><g transform="translate(189.684806, 45.953576)"><g><path d="M 15.84375 0.640625 C 13.257812 0.640625 10.96875 0.0664062 8.96875 -1.078125 C 6.976562 -2.222656 5.414062 -3.820312 4.28125 -5.875 C 3.15625 -7.9375 2.59375 -10.296875 2.59375 -12.953125 C 2.59375 -15.617188 3.15625 -17.972656 4.28125 -20.015625 C 5.414062 -22.054688 6.988281 -23.648438 9 -24.796875 C 11.007812 -25.941406 13.3125 -26.515625 15.90625 -26.515625 C 18.65625 -26.515625 21.046875 -25.863281 23.078125 -24.5625 C 25.109375 -23.269531 26.660156 -21.484375 27.734375 -19.203125 C 28.816406 -16.929688 29.304688 -14.285156 29.203125 -11.265625 L 6.828125 -11.265625 C 7.160156 -8.835938 8.140625 -6.898438 9.765625 -5.453125 C 11.398438 -4.015625 13.445312 -3.296875 15.90625 -3.296875 C 17.59375 -3.296875 19.132812 -3.660156 20.53125 -4.390625 C 21.925781 -5.117188 23.023438 -6.164062 23.828125 -7.53125 L 28.5625 -7.53125 C 27.53125 -5 25.882812 -3.003906 23.625 -1.546875 C 21.363281 -0.0859375 18.769531 0.640625 15.84375 0.640625 Z M 6.875 -14.953125 L 25.015625 -14.953125 C 24.585938 -17.304688 23.550781 -19.164062 21.90625 -20.53125 C 20.257812 -21.894531 18.257812 -22.578125 15.90625 -22.578125 C 13.507812 -22.578125 11.492188 -21.878906 9.859375 -20.484375 C 8.234375 -19.085938 7.238281 -17.242188 6.875 -14.953125 Z M 6.875 -14.953125 "/></g></g></g><g fill="#d97706" fill-opacity="1"><g transform="translate(221.387452, 45.953576)"><g><path d="M 18.734375 0.640625 C 16.710938 0.640625 14.84375 0.253906 13.125 -0.515625 C 11.414062 -1.296875 9.984375 -2.351562 8.828125 -3.6875 L 8.828125 9.96875 L 4.640625 9.96875 L 4.640625 -25.875 L 8.078125 -25.875 L 8.578125 -21.875 C 9.734375 -23.34375 11.179688 -24.484375 12.921875 -25.296875 C 14.671875 -26.109375 16.609375 -26.515625 18.734375 -26.515625 C 21.296875 -26.515625 23.566406 -25.925781 25.546875 -24.75 C 27.523438 -23.570312 29.078125 -21.96875 30.203125 -19.9375 C 31.335938 -17.90625 31.90625 -15.578125 31.90625 -12.953125 C 31.90625 -10.328125 31.335938 -7.992188 30.203125 -5.953125 C 29.078125 -3.910156 27.523438 -2.300781 25.546875 -1.125 C 23.566406 0.0507812 21.296875 0.640625 18.734375 0.640625 Z M 8.671875 -12.953125 C 8.671875 -11.097656 9.078125 -9.445312 9.890625 -8 C 10.703125 -6.550781 11.820312 -5.421875 13.25 -4.609375 C 14.6875 -3.796875 16.332031 -3.390625 18.1875 -3.390625 C 20.082031 -3.390625 21.742188 -3.796875 23.171875 -4.609375 C 24.609375 -5.421875 25.722656 -6.550781 26.515625 -8 C 27.316406 -9.445312 27.71875 -11.097656 27.71875 -12.953125 C 27.71875 -14.816406 27.316406 -16.472656 26.515625 -17.921875 C 25.722656 -19.367188 24.609375 -20.5 23.171875 -21.3125 C 21.742188 -22.125 20.082031 -22.53125 18.1875 -22.53125 C 16.332031 -22.53125 14.6875 -22.125 13.25 -21.3125 C 11.820312 -20.5 10.703125 -19.367188 9.890625 -17.921875 C 9.078125 -16.472656 8.671875 -14.816406 8.671875 -12.953125 Z M 8.671875 -12.953125 "/></g></g></g></svg>
